<svg width="17" height="16" viewBox="0 0 17 16" fill="none" xmlns="http://www.w3.org/2000/svg">
<g clip-path="url(#clip0_507_1485)">
<path d="M12.2035 15.8401L13.005 15.0386C13.1121 14.9318 13.1654 14.8087 13.1654 14.6696C13.1654 14.5309 13.1121 14.4079 13.005 14.3011L6.70434 8.00008L13.0049 1.69934C13.1119 1.59248 13.1652 1.4695 13.1652 1.33058C13.1652 1.1916 13.1119 1.06862 13.0049 0.961812L12.2033 0.160377C12.0965 0.0533466 11.9735 -5.20986e-08 11.8345 -5.81736e-08C11.6957 -6.42438e-08 11.5727 0.053515 11.4659 0.160377L3.99478 7.63132C3.88792 7.73812 3.83452 7.86116 3.83452 8.00008C3.83452 8.13901 3.88792 8.26182 3.99478 8.36857L11.4659 15.8401C11.5728 15.9469 11.6957 16 11.8345 16C11.9735 16 12.0965 15.9469 12.2035 15.8401Z" fill="#4D5D68"/>
</g>
<defs>
<clipPath id="clip0_507_1485">
<rect width="16" height="16" fill="white" transform="translate(16.5) rotate(90)"/>
</clipPath>
</defs>
</svg>
